inDegrees=yes
name=ik_data_2024_11_07_19_01
DataType=double
version=3
OpenSimVersion=4.5.1
endheader
time	pelvis_tilt	pelvis_list	pelvis_rotation	pelvis_tx	pelvis_ty	pelvis_tz	hip_flexion_r	hip_adduction_r	hip_rotation_r	knee_angle_r	knee_angle_r_beta	ankle_angle_r	subtalar_angle_r	mtp_angle_r	hip_flexion_l	hip_adduction_l	hip_rotation_l	knee_angle_l	knee_angle_l_beta	ankle_angle_l	subtalar_angle_l	mtp_angle_l	lumbar_extension	lumbar_bending	lumbar_rotation	arm_flex_r	arm_add_r	arm_rot_r	elbow_flex_r	pro_sup_r	wrist_flex_r	wrist_dev_r	arm_flex_l	arm_add_l	arm_rot_l	elbow_flex_l	pro_sup_l	wrist_flex_l	wrist_dev_l
4.99651	1.502461685997631	0.3384794403159929	-9.462614464368956	0	0.9399999999999999	0	40.72856335724578	-5.937233644107617	-0.9899180743979326	56.81199006361379	0.9915562812203634	-5.063408435956451	0	0	-1.162330831654553	0.5790623357267192	1.689600388391967	0.5113364403423243	0.00892450446940112	-5.063408435956451	0	0	0	0	0	0	-4.642300441450337	0	61.36278998691593	49.38592769826447	0	0	0	-4.642300441450337	0	61.36278998691593	49.38592769826447	0	0
5.04424	1.844386065332919	-0.2916624373832393	-12.72235501556822	0	0.9399999999999999	0	43.39743711476389	-3.657963288313248	1.332766418395575	60.76528198276253	1.060554241501994	-5.062413144113441	0	0	-1.601892839821696	0.1047292876371352	-1.582144174187914	0.5099470432280645	0.008900254915139579	-5.062413144113441	0	0	0	0	0	0	-4.660985403825706	0	61.41192327878086	49.34353397812491	0	0	0	-4.660985403825706	0	61.41192327878086	49.34353397812491	0	0
5.10945	1.943766364870489	-0.626497346211074	-14.453314565956	0	0.9399999999999999	0	46.35591209717525	-2.744465559492291	2.395148651731126	64.91141005492091	1.132917827570523	-5.062258547974414	0	0	-1.796637906195646	-0.1498443452142012	-3.319541177505101	0.472227650508277	0.008241927320326508	-5.062258547974414	0	0	0	0	0	0	-4.663928969685769	0	61.41962921229317	49.33692590181565	0	0	0	-4.663928969685769	0	61.41962921229317	49.33692590181565	0	0
5.16711	2.060577103015537	-1.176479552155271	-17.33217561637113	0	0.9399999999999999	0	49.64469551209456	-1.185890906052496	4.007939014262411	69.47144341209162	1.212505423653923	-5.061481348204167	0	0	-2.067112070975966	-0.5469019868790663	-6.218506994725582	0.5019667045809626	0.008760971730323501	-5.061481348204167	0	0	0	0	0	0	-4.678743497912057	0	61.45849705441051	49.3036107327754	0	0	0	-4.678743497912057	0	61.45849705441051	49.3036107327754	0	0
5.17592	2.361363540918555	-1.522961713797718	-19.09381066929055	0	0.9399999999999999	0	52.35709873969785	-0.2597758069491711	4.460740783828252	73.67348182632617	1.285844829277597	-5.060808787766053	0	0	-2.469687317647884	-0.7095313952256392	-8.002258227106802	0.5147735475411993	0.008984493306765488	-5.060808787766053	0	0	0	0	0	0	-4.691674847133311	0	61.49238514845372	49.27467108148365	0	0	0	-4.691674847133311	0	61.49238514845372	49.27467108148365	0	0
5.22836	2.370391584355092	-2.218719908035732	-22.76520143655707	0	0.9399999999999999	0	55.00516392107413	2.378549654767924	5.813883640720534	77.66218501895408	1.355460832873763	-5.0599660051685	0	0	-2.787246287732452	-1.190728808237475	-11.69246041112133	0.5175512495678466	0.009032973352769803	-5.0599660051685	0	0	0	0	0	0	-4.708077087201558	0	61.53529461449041	49.23821940347541	0	0	0	-4.708077087201558	0	61.53529461449041	49.23821940347541	0	0
5.29219	2.514748024080179	-2.644912981236494	-25.04467133136617	0	0.9399999999999999	0	57.1628161745893	4.117335199174015	6.407146855306777	80.69529786046344	1.408398638542623	-5.059755395027225	0	0	-3.144082196360145	-1.408053458459095	-13.99392883935204	0.5112750301980824	0.008923432660189974	-5.059755395027225	0	0	0	0	0	0	-4.712191221002101	0	61.54604385968736	49.22910131345925	0	0	0	-4.712191221002101	0	61.54604385968736	49.22910131345925	0	0
5.35331	2.605668443547612	-3.415726474131382	-29.17358784156802	0	0.9399999999999999	0	58.75470565495789	7.593018739165823	7.740772807494537	83.63083135568489	1.459633363336814	-5.058875402290452	0	0	-3.695375328856548	-1.79111350698482	-18.15904476349814	0.5074410345819182	0.00885651681318088	-5.058875402290452	0	0	0	0	0	0	-4.729590026354759	0	61.59146079430241	49.19078017413751	0	0	0	-4.729590026354759	0	61.59146079430241	49.19078017413751	0	0
5.3552	2.44240851131595	-4.062024688923589	-32.75997350119598	0	0.9399999999999999	0	60.24961459506122	10.6946242216433	8.646332782644611	85.81330160277629	1.497724654975374	-5.058159133733152	0	0	-4.021761721209568	-2.193270847607732	-21.76903668034419	0.5026900231590212	0.008773596021051468	-5.058159133733152	0	0	0	0	0	0	-4.743918650930794	0	61.62879750853932	49.15943579176446	0	0	0	-4.743918650930794	0	61.62879750853932	49.15943579176446	0	0
5.41021	2.28274378119174	-4.401947943796491	-34.70013483256226	0	0.9399999999999999	0	61.24366657387358	12.41334625782198	9.059156723701165	87.60222333485981	1.528947229260711	-5.057966362630999	0	0	-4.149326481159058	-2.422870602076611	-23.72116804228352	0.5074401506785676	0.008856501386157142	-5.057966362630999	0	0	0	0	0	0	-4.747809202505411	0	61.63890491464026	49.15098280649652	0	0	0	-4.747809202505411	0	61.63890491464026	49.15098280649652	0	0
5.46302	2.180202760681166	-4.840069304587691	-37.2242271546	0	0.9399999999999999	0	61.78787123129575	14.99461774459574	9.971249079136577	89.18194761944822	1.556518619300491	-5.057717179157422	0	0	-4.432553067311879	-2.656521073734334	-26.26682889318779	0.5091353148366279	0.008886087582077092	-5.057717179157422	0	0	0	0	0	0	-4.752856102390497	0	61.65200720050931	49.14004175364192	0	0	0	-4.752856102390497	0	61.65200720050931	49.14004175364192	0	0
5.52884	2.3395073412605	-5.204383594082329	-39.2170134916073	0	0.9399999999999999	0	61.64492779420837	17.07417520064828	10.96572644300788	90.19538200824566	1.574206386137942	-5.057618073489018	0	0	-4.885789919418474	-2.681153114205412	-28.27997196714223	0.519309350070334	0.009063657995119174	-5.057618073489018	0	0	0	0	0	0	-4.754936552021786	0	61.65734648037343	49.13565407740148	0	0	0	-4.754936552021786	0	61.65734648037343	49.13565407740148	0	0
5.53493	2.355390744317073	-5.602461709260009	-41.76578551555949	0	0.9399999999999999	0	61.26006314584094	20.00566396626425	12.16768102114253	90.59769150113904	1.58122801140096	-5.0572295706555	0	0	-5.243036717833504	-2.764084858787075	-30.85941797829101	0.5582870146799457	0.009743946577294969	-5.0572295706555	0	0	0	0	0	0	-4.762961337871443	0	61.67810484748914	49.1184704966104	0	0	0	-4.762961337871443	0	61.67810484748914	49.1184704966104	0	0
